<svg xmlns="http://www.w3.org/2000/svg" version="1.1" xmlns:xlink="http://www.w3.org/1999/xlink" xmlns:svgjs="http://svgjs.dev/svgjs" width="2000" height="2007" viewBox="0 0 2000 2007"><g transform="matrix(1,0,0,1,0,-3.5698070451593367)"><svg viewBox="0 0 280 281" data-background-color="#ffffff" preserveAspectRatio="xMidYMid meet" height="2007" width="2000" xmlns="http://www.w3.org/2000/svg" xmlns:xlink="http://www.w3.org/1999/xlink"><g id="tight-bounds" transform="matrix(1,0,0,1,0,0.5000146613731431)"><svg viewBox="0 0 280 280" height="280" width="280"><g><svg viewBox="0 0 280 280" height="280" width="280"><g><svg viewBox="0 0 280 280" height="280" width="280"><g id="textblocktransform"><svg viewBox="0 0 280 280" height="280" width="280" id="textblock"><g><svg viewBox="0 0 280 280" height="280" width="280"><g transform="matrix(1,0,0,1,100.41476618898932,74.00336708925556)"><svg viewBox="0 0 79.17046762202135 131.99326582148888" height="131.99326582148888" width="79.17046762202135"><g id="icon-0"><svg xmlns="http://www.w3.org/2000/svg" data-name="Layer 1" viewBox="28.26 13.75 43.48000000001508 72.49" x="0" y="0" height="131.99326582148888" width="79.17046762202135" class="icon-jxe-0" data-fill-palette-color="accent" id="jxe-0"><path d="M67.36 13.75H32.64A4.39 4.39 0 0 0 28.26 18.13V81.86A4.39 4.39 0 0 0 32.64 86.24H67.36A4.39 4.39 0 0 0 71.74 81.86V18.14A4.39 4.39 0 0 0 67.36 13.75M68.74 81.86A1.38 1.38 0 0 1 67.36 83.24H32.64A1.38 1.38 0 0 1 31.26 81.86V18.14A1.38 1.38 0 0 1 32.64 16.76H67.36A1.38 1.38 0 0 1 68.74 18.14z" fill="#ffffff" data-fill-palette-color="accent"></path><path d="M65.41 24.28H34.59A0.75 0.75 0 0 0 33.84 25.03V74.58A0.75 0.75 0 0 0 34.59 75.33H65.41A0.75 0.75 0 0 0 66.16 74.58V25A0.75 0.75 0 0 0 65.41 24.28M64.66 73.83H35.34V25.78H64.66z" fill="#ffffff" data-fill-palette-color="accent"></path><rect x="45.32" y="19.55" width="9.42" height="1.5" fill="#ffffff" data-fill-palette-color="accent"></rect><rect x="39.05" y="77.55" width="2.75" height="1.5" fill="#ffffff" data-fill-palette-color="accent"></rect><rect x="48.3" y="77.55" width="2.75" height="1.5" fill="#ffffff" data-fill-palette-color="accent"></rect><rect x="57.55" y="77.55" width="2.75" height="1.5" fill="#ffffff" data-fill-palette-color="accent"></rect></svg></g></svg></g><g id="text-0"><path d="M34.083 97.401l-10.262-0.219-3.002 8.57 8.182 6.157-0.777 2.218-23.361-17.636 0.697-1.992 29.313 0.647zM8.475 96.659l10.487 7.767 2.594-7.404z" fill="#ffffff" data-fill-palette-color="primary"></path><path d="M42.876 80.578l-11.952-6.613c-1.417-0.784-2.673-0.941-3.769-0.47-1.095 0.471-2.003 1.357-2.722 2.659v0c-0.437 0.79-0.77 1.652-1 2.587-0.229 0.935-0.343 1.813-0.341 2.633v0l14.81 8.195-1.08 1.951-17.459-9.66 1.08-1.951 1.108 0.795c-0.179-0.827-0.153-1.738 0.078-2.733 0.232-0.995 0.605-1.956 1.119-2.886v0c0.707-1.278 1.52-2.254 2.44-2.928v0c0.932-0.698 1.961-1.077 3.087-1.137 1.126-0.06 2.327 0.264 3.605 0.97v0l12.057 6.672z" fill="#ffffff" data-fill-palette-color="primary"></path><path d="M37.535 64.568c-2.156-1.768-2.918-3.852-2.288-6.254v0c0.3-1.162 0.93-2.328 1.889-3.498v0c0.623-0.76 1.317-1.418 2.083-1.975 0.766-0.557 1.525-0.938 2.278-1.145v0l-6.96-5.707 1.414-1.725 21.558 17.677-1.235 1.82c-0.951 1.452-1.737 2.558-2.36 3.318v0c-0.623 0.76-1.28 1.414-1.971 1.964-0.691 0.549-1.47 1.018-2.337 1.405v0c-0.976 0.436-1.999 0.575-3.072 0.417-1.072-0.158-2.132-0.666-3.179-1.525v0zM43.006 52.933c-0.762 0.302-1.536 0.732-2.32 1.291-0.784 0.559-1.463 1.187-2.035 1.885v0c-0.943 1.15-1.431 2.32-1.464 3.512-0.033 1.192 0.577 2.301 1.829 3.329v0l5.759 4.722c2.402 1.97 4.958 1.302 7.669-2.004v0c0.64-0.78 1.364-1.852 2.172-3.214v0z" fill="#ffffff" data-fill-palette-color="primary"></path><path d="M61.363 58.652l-13.269-14.902 1.666-1.483 0.838 1.121c0.155-1.702 0.986-3.224 2.493-4.567v0c0.535-0.477 1.349-1.041 2.439-1.692v0l0.905 1.914c-0.811 0.367-1.564 0.859-2.258 1.477v0c-0.912 0.812-1.545 1.678-1.899 2.598-0.354 0.92-0.231 1.717 0.369 2.391v0l10.382 11.66z" fill="#ffffff" data-fill-palette-color="primary"></path><path d="M80.048 35.683c1.249 1.848 1.777 3.718 1.583 5.612-0.194 1.894-1.314 3.532-3.359 4.915v0c-2.046 1.383-4.003 1.817-5.874 1.304-1.87-0.514-3.422-1.684-4.656-3.51v0l-2.945-4.355c-1.413-2.09-1.961-4.05-1.645-5.883 0.316-1.832 1.474-3.425 3.476-4.777v0c1.914-1.294 3.8-1.728 5.658-1.302 1.858 0.426 3.464 1.64 4.817 3.641v0zM75.256 32.577c-1.115-1.65-2.313-2.603-3.592-2.859-1.279-0.257-2.579 0.061-3.899 0.953v0c-1.364 0.922-2.17 2.028-2.419 3.319-0.249 1.29 0.184 2.76 1.299 4.41v0l3.167 4.684c0.892 1.32 2.004 2.122 3.335 2.409 1.331 0.286 2.667-0.025 4.01-0.932v0c1.364-0.922 2.143-2.034 2.336-3.335 0.194-1.301-0.163-2.622-1.07-3.964v0z" fill="#ffffff" data-fill-palette-color="primary"></path><path d="M79.301 15.733c-0.308 0.155-0.65 0.171-1.024 0.048-0.374-0.123-0.639-0.339-0.795-0.648v0c-0.155-0.308-0.174-0.641-0.056-0.997 0.118-0.357 0.342-0.619 0.674-0.786v0c0.332-0.167 0.667-0.195 1.006-0.083 0.339 0.112 0.592 0.333 0.759 0.665v0c0.167 0.332 0.192 0.676 0.075 1.033-0.118 0.357-0.33 0.613-0.639 0.768zM89.797 39.12l-8.982-17.817 1.992-1.004 8.981 17.817z" fill="#ffffff" data-fill-palette-color="primary"></path><path d="M94.829 22.171c-0.889-2.642-0.429-4.814 1.38-6.515v0c0.871-0.825 2.023-1.479 3.458-1.962v0c0.931-0.313 1.869-0.503 2.813-0.569 0.944-0.066 1.79 0.014 2.538 0.239v0l-2.871-8.531 2.114-0.711 8.892 26.422-2.013 0.887c-1.576 0.727-2.83 1.246-3.761 1.56v0c-0.931 0.313-1.835 0.519-2.712 0.619-0.877 0.099-1.786 0.083-2.727-0.049v0c-1.058-0.148-2-0.574-2.825-1.277-0.825-0.703-1.453-1.696-1.885-2.979v0zM105.64 15.213c-0.806-0.149-1.69-0.195-2.651-0.137-0.961 0.057-1.87 0.23-2.725 0.518v0c-1.409 0.474-2.444 1.208-3.105 2.2-0.66 0.993-0.732 2.256-0.215 3.791v0l2.375 7.059c0.991 2.944 3.512 3.735 7.563 2.371v0c0.956-0.322 2.139-0.846 3.547-1.572v0z" fill="#ffffff" data-fill-palette-color="primary"></path><path d="M131.275 28.138l-0.841-27.905 7.484-0.226c2.999-0.09 5.313 0.663 6.941 2.261 1.629 1.598 2.484 3.763 2.567 6.497v0l0.328 10.908c0.16 5.308-2.573 8.046-8.199 8.215v0zM145.185 8.434c-0.046-1.513-0.408-2.757-1.089-3.732-0.68-0.976-1.531-1.674-2.553-2.095-1.022-0.421-2.077-0.615-3.166-0.582v0l-5.652 0.171 0.719 23.884 5.414-0.163c1.937-0.058 3.551-0.486 4.842-1.281 1.291-0.796 1.903-2.295 1.837-4.498v0z" fill="#ffffff" data-fill-palette-color="primary"></path><path d="M166.745 29.313c-1.044 0.444-2.194 0.723-3.451 0.835-1.257 0.113-2.488 0.068-3.692-0.134v0c-1.938-0.324-3.396-1.06-4.376-2.206-0.979-1.147-1.309-2.676-0.988-4.587v0l1.348-8.052c0.355-2.121 1.293-3.66 2.812-4.617 1.52-0.957 3.366-1.254 5.54-0.89v0c2.173 0.364 3.771 1.23 4.794 2.6 1.023 1.369 1.361 3.088 1.014 5.156v0l-0.855 5.107-12.052-1.332-0.401 2.396c-0.21 1.257 0.038 2.268 0.744 3.032 0.707 0.764 1.714 1.256 3.023 1.476v0c1.833 0.307 3.819 0.101 5.959-0.618v0zM167.593 16.775c0.272-1.624-0.047-2.855-0.957-3.693-0.909-0.839-1.927-1.352-3.053-1.541v0c-1.44-0.241-2.697-0.048-3.772 0.58-1.074 0.628-1.752 1.78-2.032 3.455v0l-0.579 3.457 9.821 1.159z" fill="#ffffff" data-fill-palette-color="primary"></path><path d="M175.351 33.434l0.475-20.857 2.231 0.737-0.507 18.414 10.604-15.077 2.231 0.737-12.123 17.008z" fill="#ffffff" data-fill-palette-color="primary"></path><path d="M198.761 42.056c-1.128 0.121-2.309 0.051-3.545-0.207-1.235-0.259-2.4-0.661-3.493-1.206v0c-1.759-0.876-2.939-2.005-3.541-3.387-0.602-1.382-0.471-2.941 0.394-4.676v0l3.639-7.308c0.959-1.925 2.304-3.124 4.037-3.596 1.733-0.472 3.586-0.217 5.558 0.766v0c1.973 0.982 3.248 2.277 3.827 3.885 0.579 1.608 0.4 3.351-0.535 5.229v0l-2.308 4.634-11.139-4.79-1.083 2.174c-0.568 1.141-0.626 2.18-0.173 3.117 0.453 0.937 1.273 1.702 2.462 2.294v0c1.664 0.828 3.623 1.211 5.879 1.148v0zM203.23 30.312c0.734-1.474 0.788-2.744 0.163-3.812-0.625-1.068-1.449-1.856-2.471-2.365v0c-1.307-0.651-2.566-0.833-3.776-0.546-1.211 0.287-2.195 1.191-2.953 2.713v0l-1.562 3.137 9.055 3.975z" fill="#ffffff" data-fill-palette-color="primary"></path><path d="M204.393 47.255l15.139-23.409 1.873 1.212-15.139 23.409z" fill="#ffffff" data-fill-palette-color="primary"></path><path d="M228.353 57.497c-1.463 1.684-3.134 2.676-5.014 2.978-1.88 0.301-3.752-0.357-5.615-1.977v0c-1.864-1.619-2.789-3.399-2.775-5.338 0.014-1.939 0.744-3.741 2.189-5.405v0l3.448-3.969c1.654-1.904 3.407-2.94 5.258-3.107 1.851-0.168 3.689 0.541 5.513 2.125v0c1.744 1.515 2.65 3.225 2.718 5.13 0.068 1.905-0.69 3.77-2.275 5.594v0zM230.117 52.066c1.306-1.503 1.918-2.906 1.835-4.208-0.082-1.302-0.724-2.476-1.927-3.521v0c-1.243-1.08-2.52-1.573-3.83-1.481-1.311 0.092-2.619 0.89-3.925 2.393v0l-3.709 4.269c-1.045 1.203-1.533 2.484-1.466 3.844 0.067 1.36 0.712 2.571 1.935 3.633v0c1.243 1.08 2.518 1.545 3.824 1.397 1.307-0.148 2.492-0.834 3.554-2.057v0z" fill="#ffffff" data-fill-palette-color="primary"></path><path d="M220.463 72.625l22.049-17.766 1.4 1.737-1.707 1.119c1.049 0.075 2.033 0.365 2.951 0.87 0.918 0.505 1.677 1.129 2.277 1.873v0c1.549 1.923 2.17 3.835 1.861 5.738-0.308 1.902-1.352 3.57-3.13 5.002v0l-4.31 3.473c-1.881 1.516-3.748 2.151-5.601 1.904-1.852-0.246-3.478-1.238-4.877-2.974v0c-0.716-0.889-1.225-1.775-1.527-2.657-0.302-0.882-0.359-1.842-0.172-2.879v0l-7.132 5.747zM244.889 69.361c1.509-1.216 2.284-2.497 2.325-3.842 0.041-1.346-0.38-2.566-1.263-3.662v0c-0.9-1.116-2.01-1.807-3.331-2.072-1.322-0.265-2.721 0.146-4.198 1.233v0l-4.899 3.948c-1.344 1.083-2.028 2.265-2.053 3.547-0.025 1.281 0.471 2.553 1.488 3.813v0c0.916 1.137 2.023 1.823 3.319 2.057 1.297 0.234 2.586-0.166 3.867-1.198v0z" fill="#ffffff" data-fill-palette-color="primary"></path><path d="M245.849 93.488c-0.996-0.543-1.928-1.272-2.796-2.189-0.868-0.916-1.597-1.909-2.186-2.979v0c-0.948-1.721-1.276-3.321-0.984-4.8 0.292-1.479 1.287-2.686 2.984-3.621v0l7.152-3.938c1.884-1.037 3.672-1.257 5.366-0.659 1.693 0.598 3.071 1.863 4.134 3.793v0c1.063 1.93 1.375 3.721 0.935 5.373-0.439 1.651-1.578 2.983-3.415 3.995v0l-4.535 2.497-6.433-10.279-2.128 1.172c-1.116 0.615-1.755 1.436-1.916 2.464-0.161 1.028 0.078 2.124 0.718 3.287v0c0.896 1.628 2.29 3.058 4.181 4.29v0zM256.208 86.374c1.442-0.794 2.21-1.808 2.303-3.041 0.094-1.234-0.135-2.35-0.685-3.351v0c-0.704-1.279-1.636-2.145-2.795-2.598-1.159-0.453-2.482-0.27-3.971 0.55v0l-3.07 1.69 5.183 8.422z" fill="#ffffff" data-fill-palette-color="primary"></path><path d="M247.078 100.083l18.672-7.034 0.786 2.087-1.347 0.379c1.533 0.756 2.655 2.078 3.367 3.967v0c0.253 0.671 0.487 1.632 0.704 2.884v0l-2.112 0.157c-0.051-0.889-0.24-1.768-0.568-2.637v0c-0.431-1.143-1.011-2.045-1.742-2.706-0.731-0.661-1.519-0.832-2.364-0.514v0l-14.61 5.504z" fill="#ffffff" data-fill-palette-color="primary"></path><path d="M15.227 197.292l8.267-6.326-3.055-8.688-10.383 0.305-0.79-2.245 29.674-0.85 0.714 2.029-23.621 18.067zM35.975 181.65l-13.23 0.493 2.642 7.514z" fill="#ffffff" data-fill-palette-color="primary"></path><path d="M25.441 217.187l12.119-6.724c1.434-0.795 2.244-1.791 2.43-2.988 0.18-1.193-0.096-2.452-0.831-3.775v0c-0.444-0.801-1.006-1.552-1.684-2.254-0.684-0.699-1.378-1.266-2.083-1.702v0l-15.009 8.328-1.096-1.976 17.699-9.821 1.097 1.976-1.279 0.527c0.806 0.289 1.572 0.802 2.299 1.537 0.733 0.732 1.361 1.571 1.886 2.518v0c0.718 1.294 1.12 2.518 1.205 3.669v0c0.098 1.175-0.13 2.262-0.684 3.261-0.551 1.004-1.474 1.865-2.768 2.583v0l-12.224 6.783z" fill="#ffffff" data-fill-palette-color="primary"></path><path d="M43.532 218.461c2.184-1.796 4.408-2.143 6.672-1.041v0c1.099 0.531 2.135 1.389 3.11 2.573v0c0.632 0.769 1.152 1.588 1.557 2.458 0.401 0.874 0.629 1.705 0.684 2.493v0l7.051-5.8 1.442 1.754-21.839 17.961-1.57-1.596c-1.258-1.226-2.203-2.223-2.835-2.992v0c-0.637-0.774-1.157-1.558-1.561-2.352-0.413-0.795-0.727-1.662-0.941-2.603v0c-0.241-1.056-0.177-2.102 0.192-3.136 0.365-1.04 1.079-1.996 2.14-2.868v0zM54.024 226.203c-0.147-0.816-0.42-1.67-0.818-2.563-0.404-0.888-0.897-1.686-1.479-2.393v0c-0.957-1.164-2.024-1.881-3.2-2.151-1.181-0.266-2.405 0.122-3.671 1.163v0l-5.836 4.8c-2.435 2.003-2.276 4.678 0.477 8.026v0c0.649 0.789 1.573 1.719 2.77 2.788v0z" fill="#ffffff" data-fill-palette-color="primary"></path><path d="M48.104 244.251l13.44-15.135 1.698 1.507-1.028 0.978c1.728-0.046 3.358 0.612 4.891 1.974v0c0.541 0.48 1.206 1.231 1.996 2.251v0l-1.823 1.138c-0.469-0.771-1.056-1.47-1.76-2.096v0c-0.928-0.824-1.874-1.358-2.839-1.602-0.969-0.248-1.758-0.03-2.366 0.655v0l-10.511 11.838z" fill="#ffffff" data-fill-palette-color="primary"></path><path d="M77.293 256.669c-1.266 1.876-2.828 3.081-4.684 3.614-1.855 0.542-3.822 0.111-5.903-1.292v0c-2.074-1.4-3.223-3.08-3.445-5.04-0.227-1.955 0.286-3.859 1.537-5.713v0l2.979-4.416c1.429-2.118 3.067-3.376 4.912-3.772 1.845-0.397 3.783 0.09 5.813 1.46v0c1.942 1.311 3.065 2.921 3.369 4.832 0.304 1.911-0.229 3.881-1.599 5.912v0zM78.399 250.99c1.129-1.673 1.571-3.16 1.328-4.461-0.243-1.301-1.036-2.405-2.378-3.31v0c-1.381-0.932-2.726-1.271-4.034-1.017-1.309 0.254-2.527 1.217-3.656 2.89v0l-3.208 4.754c-0.902 1.337-1.237 2.688-1.006 4.054 0.235 1.36 1.033 2.498 2.392 3.415v0c1.387 0.936 2.729 1.249 4.026 0.94 1.298-0.309 2.407-1.146 3.328-2.511v0z" fill="#ffffff" data-fill-palette-color="primary"></path><path d="M93.549 243.985c-0.308-0.155-0.527-0.422-0.657-0.799-0.127-0.383-0.111-0.732 0.048-1.046v0c0.155-0.308 0.416-0.523 0.781-0.643 0.365-0.121 0.714-0.097 1.046 0.07v0c0.338 0.17 0.564 0.429 0.679 0.776 0.109 0.345 0.08 0.683-0.088 1.015v0c-0.17 0.338-0.435 0.569-0.794 0.693-0.362 0.115-0.701 0.093-1.015-0.066zM80.824 266.661l9.105-18.078 2.018 1.017-9.104 18.078z" fill="#ffffff" data-fill-palette-color="primary"></path><path d="M97.22 258.343c0.902-2.68 2.605-4.152 5.11-4.416v0c1.214-0.131 2.547 0.048 4 0.537v0c0.944 0.317 1.818 0.738 2.623 1.26 0.802 0.529 1.436 1.113 1.9 1.753v0l2.911-8.653 2.151 0.723-9.016 26.801-2.177-0.523c-1.716-0.374-3.046-0.72-3.989-1.037v0c-0.95-0.32-1.806-0.709-2.569-1.169-0.771-0.456-1.497-1.025-2.178-1.709v0c-0.764-0.768-1.263-1.689-1.497-2.762-0.241-1.075-0.142-2.264 0.296-3.567v0zM110.221 259.355c-0.557-0.614-1.24-1.195-2.051-1.74-0.813-0.54-1.653-0.955-2.522-1.248v0c-1.428-0.48-2.713-0.524-3.853-0.13-1.143 0.4-1.976 1.377-2.499 2.93v0l-2.409 7.163c-1.005 2.988 0.546 5.173 4.654 6.555v0c0.969 0.326 2.244 0.625 3.826 0.899v0z" fill="#ffffff" data-fill-palette-color="primary"></path><path d="M130.533 279.735l0.865-28.303 7.593 0.232c3.045 0.093 5.342 0.997 6.89 2.711 1.548 1.721 2.279 3.968 2.194 6.741v0l-0.338 11.066c-0.164 5.381-3.1 7.984-8.805 7.81v0zM145.829 260.639c0.047-1.533-0.243-2.813-0.869-3.842-0.633-1.029-1.453-1.788-2.461-2.276-1.008-0.489-2.062-0.75-3.163-0.784v0l-5.732-0.175-0.741 24.222 5.484 0.168c1.97 0.06 3.631-0.271 4.981-0.993 1.357-0.729 2.07-2.211 2.138-4.447v0z" fill="#ffffff" data-fill-palette-color="primary"></path><path d="M169.708 275.514c-0.854 0.769-1.866 1.416-3.037 1.942-1.164 0.525-2.358 0.89-3.582 1.095v0c-1.964 0.329-3.606 0.106-4.927-0.669-1.314-0.776-2.134-2.136-2.46-4.08v0l-1.367-8.16c-0.361-2.154 0.03-3.942 1.171-5.365 1.142-1.416 2.817-2.309 5.023-2.679v0c2.2-0.368 4.017-0.067 5.452 0.905 1.436 0.978 2.329 2.514 2.679 4.608v0l0.869 5.185-12.004 2.707 0.406 2.426c0.214 1.277 0.786 2.163 1.717 2.66 0.932 0.503 2.063 0.644 3.392 0.421v0c1.859-0.311 3.695-1.164 5.508-2.558v0zM166.375 263.211c-0.275-1.643-0.987-2.719-2.135-3.226-1.147-0.501-2.294-0.656-3.439-0.464v0c-1.46 0.244-2.601 0.843-3.425 1.795-0.822 0.959-1.091 2.289-0.805 3.992v0l0.587 3.505 9.798-2.135z" fill="#ffffff" data-fill-palette-color="primary"></path><path d="M181.628 273.45l-12.22-17.28 2.259-0.747 10.721 15.312-0.473-18.697 2.26-0.747 0.403 21.185z" fill="#ffffff" data-fill-palette-color="primary"></path><path d="M206.508 261.196c-0.593 0.984-1.372 1.898-2.338 2.743-0.961 0.841-1.996 1.538-3.108 2.09v0c-1.783 0.887-3.419 1.152-4.909 0.796-1.483-0.359-2.664-1.421-3.542-3.186v0l-3.685-7.408c-0.973-1.955-1.12-3.78-0.443-5.473 0.68-1.688 2.022-3.03 4.025-4.026v0c1.997-0.993 3.823-1.234 5.478-0.724 1.658 0.517 2.96 1.726 3.907 3.628v0l2.341 4.707-10.695 6.087 1.096 2.202c0.576 1.159 1.382 1.84 2.418 2.044 1.039 0.21 2.161 0.015 3.367-0.585v0c1.688-0.84 3.196-2.19 4.523-4.051v0zM199.736 250.398c-0.742-1.492-1.736-2.313-2.983-2.464-1.243-0.145-2.385 0.041-3.425 0.558v0c-1.325 0.659-2.243 1.564-2.753 2.715-0.507 1.157-0.376 2.508 0.392 4.053v0l1.583 3.182 8.751-4.897z" fill="#ffffff" data-fill-palette-color="primary"></path><path d="M215.193 257.496l-15.329-23.762 1.908-1.23 15.328 23.761z" fill="#ffffff" data-fill-palette-color="primary"></path><path d="M231.823 234.362c1.482 1.711 2.238 3.532 2.269 5.463 0.04 1.932-0.888 3.72-2.784 5.362v0c-1.892 1.638-3.813 2.31-5.763 2.015-1.946-0.29-3.651-1.281-5.116-2.972v0l-3.487-4.026c-1.673-1.932-2.461-3.84-2.364-5.725 0.098-1.885 1.072-3.629 2.924-5.232v0c1.771-1.534 3.619-2.199 5.543-1.995 1.924 0.204 3.688 1.232 5.291 3.083v0zM226.628 231.815c-1.321-1.525-2.641-2.34-3.961-2.444-1.32-0.104-2.591 0.374-3.816 1.434v0c-1.259 1.091-1.937 2.301-2.032 3.63-0.095 1.33 0.517 2.757 1.839 4.283v0l3.754 4.335c1.056 1.219 2.273 1.895 3.652 2.026 1.374 0.127 2.681-0.346 3.921-1.419v0c1.264-1.095 1.916-2.309 1.955-3.643 0.039-1.334-0.48-2.623-1.558-3.867v0z" fill="#ffffff" data-fill-palette-color="primary"></path><path d="M249.057 238.547l-22.344-18.051 1.427-1.766 1.472 1.458c-0.145-1.056-0.067-2.093 0.236-3.112 0.302-1.019 0.758-1.905 1.367-2.659v0c1.573-1.946 3.335-2.972 5.287-3.075 1.952-0.104 3.83 0.573 5.632 2.029v0l4.368 3.528c1.905 1.539 2.935 3.254 3.088 5.145 0.154 1.891-0.481 3.716-1.903 5.477v0c-0.726 0.898-1.495 1.591-2.307 2.079-0.812 0.487-1.749 0.75-2.812 0.787v0l7.226 5.838zM240.59 215.028c-1.528-1.235-2.964-1.729-4.307-1.482-1.347 0.252-2.469 0.932-3.365 2.043v0c-0.914 1.131-1.359 2.379-1.337 3.745 0.022 1.366 0.729 2.662 2.12 3.889v0l4.972 4.017c1.358 1.097 2.675 1.521 3.951 1.272 1.276-0.249 2.43-1.011 3.46-2.286v0c0.934-1.157 1.378-2.403 1.33-3.738-0.047-1.335-0.719-2.527-2.015-3.574v0z" fill="#ffffff" data-fill-palette-color="primary"></path><path d="M260.97 202.698c0.072 1.147-0.05 2.342-0.364 3.586-0.312 1.238-0.768 2.4-1.368 3.487v0c-0.962 1.743-2.158 2.892-3.586 3.445-1.425 0.548-3 0.345-4.726-0.608v0l-7.243-3.999c-1.912-1.056-3.07-2.472-3.476-4.251-0.4-1.775-0.059-3.642 1.022-5.6v0c1.078-1.952 2.443-3.189 4.096-3.709 1.658-0.518 3.417-0.263 5.276 0.763v0l4.602 2.541-5.337 11.088 2.153 1.189c1.133 0.626 2.184 0.728 3.151 0.307 0.974-0.418 1.786-1.216 2.438-2.396v0c0.911-1.65 1.384-3.618 1.417-5.905v0zM249.26 197.665c-1.458-0.805-2.743-0.916-3.855-0.331-1.105 0.588-1.939 1.39-2.5 2.406v0c-0.715 1.296-0.956 2.562-0.721 3.799 0.24 1.24 1.116 2.277 2.627 3.111v0l3.111 1.718 4.414-9.004z" fill="#ffffff" data-fill-palette-color="primary"></path><path d="M265.792 195.026l-18.932-7.163 0.803-2.123 1.28 0.612c-0.659-1.598-0.625-3.356 0.101-5.274v0c0.256-0.677 0.72-1.566 1.392-2.667v0l1.713 1.298c-0.554 0.713-0.997 1.51-1.331 2.392v0c-0.439 1.161-0.601 2.235-0.485 3.223 0.114 0.994 0.599 1.653 1.456 1.977v0l14.806 5.602z" fill="#ffffff" data-fill-palette-color="primary"></path><path d="M3.745 143.901c0-5.966 4.836-10.802 10.801-10.802 5.966 0 10.802 4.836 10.802 10.802 0 5.966-4.836 10.802-10.802 10.801-5.966 0-10.802-4.836-10.801-10.801z" fill="#ffffff" data-fill-palette-color="primary"></path><path d="M254.652 143.901c0-5.966 4.836-10.802 10.802-10.802 5.966 0 10.802 4.836 10.801 10.802 0 5.966-4.836 10.802-10.801 10.801-5.966 0-10.802-4.836-10.802-10.801z" fill="#ffffff" data-fill-palette-color="primary"></path></g><g id="text-1"></g></svg></g></svg></g></svg></g></svg></g><defs></defs></svg><rect width="280" height="280" fill="none" stroke="none" visibility="hidden"></rect></g></svg></g></svg>